<?xml version="1.0" standalone="no"?>
<!DOCTYPE svg PUBLIC "-//W3C//DTD SVG 20010904//EN"
 "http://www.w3.org/TR/2001/REC-SVG-20010904/DTD/svg10.dtd">
<svg version="1.0" xmlns="http://www.w3.org/2000/svg"
 width="240.000000pt" height="240.000000pt" viewBox="0 0 240.000000 240.000000"
 preserveAspectRatio="xMidYMid meet">
<metadata>
Created by potrace 1.16, written by Peter Selinger 2001-2019
</metadata>
<g transform="translate(0.000000,240.000000) scale(0.100000,-0.100000)"
fill="#000000" stroke="none">
<path d="M1140 2290 c-71 -13 -85 -20 -440 -223 -371 -213 -410 -243 -463
-355 l-32 -67 0 -445 0 -445 32 -67 c53 -112 92 -142 465 -356 184 -105 355
-199 379 -208 64 -23 191 -22 254 4 87 35 708 398 751 439 53 50 89 113 108
188 23 87 23 803 0 890 -19 75 -55 138 -108 188 -42 40 -666 405 -746 437 -56
22 -141 30 -200 20z m210 -44 c19 -10 181 -102 360 -205 210 -121 340 -201
368 -229 24 -24 58 -73 75 -110 l32 -67 0 -435 0 -435 -32 -67 c-17 -37 -51
-86 -75 -110 -28 -28 -158 -108 -368 -229 -179 -103 -341 -195 -360 -205 -43
-22 -188 -31 -246 -15 -41 11 -678 370 -742 418 -51 38 -100 111 -122 182 -19
59 -20 91 -20 461 0 370 1 402 20 461 22 71 71 144 122 182 51 38 697 406 732
417 51 16 216 7 256 -14z"/>
<path d="M1095 2231 c-81 -29 -695 -387 -743 -434 -24 -23 -56 -64 -70 -92
l-27 -50 0 -455 0 -455 27 -50 c14 -27 46 -69 70 -92 50 -48 688 -419 757
-440 60 -18 137 -16 197 4 72 24 689 381 745 431 27 25 60 67 76 100 l28 57 0
445 0 445 -28 57 c-16 33 -49 75 -76 100 -55 49 -643 392 -729 425 -71 27
-159 29 -227 4z m460 -381 c103 -15 135 -34 170 -102 l30 -58 48 0 c40 0 47
-3 47 -20 0 -10 -8 -24 -17 -30 -17 -11 -17 -11 0 -6 13 4 17 -1 17 -22 0 -26
-2 -27 -45 -24 -46 4 -51 16 -11 32 17 7 17 9 4 9 -10 1 -26 -7 -36 -17 -20
-20 -147 -56 -163 -47 -5 4 -9 2 -9 -4 0 -5 -10 -13 -22 -16 -59 -17 -198 -68
-194 -72 2 -2 51 12 110 30 l106 35 2 -57 1 -56 6 59 c6 58 7 59 44 72 60 21
150 28 191 14 36 -11 36 -12 21 -41 -17 -32 -42 -38 -47 -11 -2 9 -7 -10 -11
-44 l-8 -61 -157 -121 c-175 -135 -272 -206 -272 -198 0 3 23 24 51 46 58 46
40 55 -24 12 -80 -54 -89 -55 -23 -3 43 34 24 45 -22 12 -15 -10 -38 -24 -52
-30 -24 -12 -24 -11 -5 4 11 9 31 25 45 35 50 37 10 31 -47 -7 -77 -51 -96
-60 -54 -26 73 59 88 74 66 66 -11 -3 -36 -16 -55 -28 -60 -37 -66 -38 -30 -6
34 30 34 31 7 21 -15 -5 -42 -17 -60 -26 l-32 -16 29 25 30 24 -45 0 c-24 0
-61 -8 -81 -18 -46 -24 -51 -16 -5 8 23 12 27 18 16 21 -9 1 -32 -6 -50 -17
-45 -27 -64 -27 -21 0 17 12 32 22 32 24 0 9 -90 0 -113 -12 -38 -19 -47 -9
-10 11 41 22 6 19 -46 -4 -57 -26 -67 -25 -16 2 58 31 29 33 -41 3 -32 -14
-50 -18 -39 -10 11 9 30 18 43 22 12 3 22 9 22 14 0 12 -1 12 -55 -12 -25 -11
-49 -19 -51 -16 -3 2 9 10 26 17 16 7 30 16 30 21 0 4 -27 -3 -60 -17 -76 -30
-91 -30 -25 1 62 29 44 32 -27 5 -70 -26 -75 -24 -13 5 62 29 47 32 -30 5 -32
-11 -60 -18 -62 -16 -2 2 19 12 47 22 28 10 48 20 43 21 -5 2 -42 -8 -83 -22
-40 -14 -75 -23 -77 -21 -2 2 25 14 61 27 l65 24 -31 32 c-17 18 -30 34 -27
36 2 1 21 8 41 15 33 12 40 11 65 -7 21 -15 72 -26 210 -46 100 -14 207 -25
236 -25 36 0 59 -5 67 -15 13 -16 57 -20 78 -6 8 5 -4 7 -30 7 -40 -1 -43 1
-46 28 -3 25 -6 28 -35 23 -17 -2 -39 -1 -47 4 -23 12 -403 61 -422 54 -9 -4
-19 -2 -23 4 -4 8 -15 6 -35 -4 -68 -35 -109 -6 -65 47 14 16 25 36 25 44 0 8
10 14 23 14 31 0 47 18 47 51 0 29 -39 68 -69 70 -63 3 234 52 373 61 42 3 41
3 82 91 29 64 42 73 134 86 80 12 304 12 385 1z m-1063 -834 l18 -21 6 22 c6
21 8 22 250 22 201 0 244 -3 244 -14 0 -8 5 -17 11 -21 8 -4 9 0 4 15 -6 20
-3 21 64 21 62 0 70 -2 65 -17 -5 -17 -5 -17 9 -1 12 16 51 17 460 18 l447 0
-3 -149 c-1 -85 -6 -147 -11 -144 -5 4 -6 -7 -2 -23 5 -21 4 -25 -4 -14 -8 12
-10 11 -10 -7 l0 -23 -850 0 -850 0 0 74 c0 54 4 79 16 90 14 15 14 16 0 16
-12 0 -16 9 -14 33 1 17 6 38 11 45 6 8 6 12 -2 12 -6 0 -11 18 -11 43 l0 43
67 1 c56 0 71 -4 85 -21z"/>
<path d="M1168 1823 c-21 -2 -38 -7 -38 -11 1 -4 16 -32 34 -62 24 -41 40 -57
62 -61 38 -8 174 -11 174 -3 0 3 -18 37 -40 75 l-41 69 -57 -2 c-31 -1 -74 -3
-94 -5z"/>
<path d="M1420 1764 c46 -82 58 -94 96 -94 41 0 46 8 38 60 -11 66 -31 83
-104 88 l-63 5 33 -59z"/>
<path d="M643 1439 c10 -6 14 -15 10 -22 -4 -7 0 -7 10 1 13 11 26 12 64 3 27
-7 120 -20 207 -31 88 -11 163 -25 166 -31 5 -7 9 -5 13 5 8 20 31 20 62 0 16
-11 34 -13 60 -8 54 10 28 19 -105 38 -132 18 -461 56 -487 56 -17 -1 -17 -1
0 -11z"/>
</g>
</svg>
